<svg width="24" height="24" viewBox="0 0 24 24" fill="none" xmlns="http://www.w3.org/2000/svg">
<path fill-rule="evenodd" clip-rule="evenodd" d="M14.9994 7H16.9994V12C16.9994 14.4709 17.1889 15 17.9994 15C19.3037 15 19.9994 14.3832 19.9994 12C19.9994 6.71065 17.3465 4 11.9996 4C8.53551 4.00044 5.46529 6.23026 4.39328 9.52426C3.32127 12.8182 4.49105 16.428 7.29132 18.4671C10.0916 20.5062 13.8861 20.5114 16.692 18.48L17.8649 20.1C14.3575 22.6393 9.61437 22.6328 6.11402 20.0839C2.61367 17.5349 1.15145 13.0228 2.49146 8.90532C3.83147 4.78783 7.66925 2.00054 11.9994 2C18.4608 2 21.9994 5.6156 21.9994 12C21.9994 15.5449 20.3583 17 17.9994 17C16.6556 17 15.8865 16.5667 15.4643 15.6048C14.5656 16.4688 13.3445 17 11.9994 17C9.238 17 6.99943 14.7614 6.99943 12C6.99943 9.23858 9.238 7 11.9994 7C13.125 7 14.1638 7.37194 14.9994 7.99963V7ZM14.9994 12C14.9994 13.6569 13.6563 15 11.9994 15C10.3426 15 8.99943 13.6569 8.99943 12C8.99943 10.3431 10.3426 9 11.9994 9C13.6563 9 14.9994 10.3431 14.9994 12Z" fill="black"/>
</svg>
