<svg width="103" height="103" viewBox="0 0 103 103" fill="none" xmlns="http://www.w3.org/2000/svg">
<path d="M45.7063 12.6175L29.7413 38.7108C27.9817 41.5433 30.0417 45.2341 33.3892 45.2341H65.2763C68.6238 45.2341 70.6838 41.5433 68.9242 38.7108L53.0021 12.6175C51.3284 9.87083 47.38 9.87083 45.7063 12.6175Z" stroke="#FFA000" stroke-opacity="0.3"/>
<path d="M72.9584 53.8175C66.0587 53.8175 59.6831 57.4984 56.2332 63.4737C52.7834 69.4491 52.7834 76.8109 56.2332 82.7862C59.6831 88.7616 66.0587 92.4425 72.9584 92.4425C79.858 92.4425 86.2336 88.7616 89.6835 82.7862C93.1333 76.8109 93.1333 69.4491 89.6835 63.4737C86.2336 57.4984 79.858 53.8175 72.9584 53.8175V53.8175Z" stroke="#EC407A" stroke-opacity="0.3"/>
<path d="M15.0208 90.2967H40.7708C43.1313 90.2967 45.0625 88.3654 45.0625 86.005V60.255C45.0625 57.8946 43.1313 55.9633 40.7708 55.9633H15.0208C12.6604 55.9633 10.7292 57.8946 10.7292 60.255V86.005C10.7292 88.3654 12.6604 90.2967 15.0208 90.2967Z" stroke="#29B6F6" stroke-opacity="0.3"/>
</svg>
